<?xml version="1.0" ?><!DOCTYPE svg  PUBLIC '-//W3C//DTD SVG 1.1//EN'  'http://www.w3.org/Graphics/SVG/1.1/DTD/svg11.dtd'><svg enable-background="new 0 0 512 512" id="Layer_1" version="1.1" viewBox="0 0 512 512" xml:space="preserve" xmlns="http://www.w3.org/2000/svg" xmlns:xlink="http://www.w3.org/1999/xlink"><g id="XMLID_169_"><polyline fill="none" id="XMLID_165_" points="   81.8,268.1 81.8,76.6 430.2,76.6 430.2,266  " stroke="#000000" stroke-linecap="round" stroke-linejoin="round" stroke-miterlimit="10" stroke-width="10"/><polyline fill="none" id="XMLID_170_" points="   80.9,142 16,188.4 16,220.7  " stroke="#000000" stroke-linecap="round" stroke-linejoin="round" stroke-miterlimit="10" stroke-width="10"/><polyline fill="none" id="XMLID_152_" points="   339.6,76.6 256,16.9 256,16.9 172.4,76.6  " stroke="#000000" stroke-linecap="round" stroke-linejoin="round" stroke-miterlimit="10" stroke-width="10"/><polyline fill="none" id="XMLID_167_" points="   496,220.7 496,188.4 430.2,141.4  " stroke="#000000" stroke-linecap="round" stroke-linejoin="round" stroke-miterlimit="10" stroke-width="10"/><path d="   M16,443.7v22.2c0,16.1,13.1,29.2,29.2,29.2h421.7c16.1,0,29.2-13.1,29.2-29.2v-22.2" fill="none" id="XMLID_166_" stroke="#000000" stroke-linecap="round" stroke-linejoin="round" stroke-miterlimit="10" stroke-width="10"/><g id="XMLID_153_"><polygon fill="none" id="XMLID_164_" points="    496,449.2 335.6,334.7 496,220.1   " stroke="#000000" stroke-linecap="round" stroke-linejoin="round" stroke-miterlimit="10" stroke-width="10"/><polygon fill="none" id="XMLID_163_" points="    16,449.2 176.4,334.7 16,220.1   " stroke="#000000" stroke-linecap="round" stroke-linejoin="round" stroke-miterlimit="10" stroke-width="10"/></g><line fill="none" id="XMLID_168_" stroke="#000000" stroke-linecap="round" stroke-linejoin="round" stroke-miterlimit="10" stroke-width="10" x1="339.1" x2="172.7" y1="334.7" y2="334.7"/></g></svg>